<?xml version="1.0" standalone="no"?>
<!DOCTYPE svg PUBLIC "-//W3C//DTD SVG 20010904//EN"
 "http://www.w3.org/TR/2001/REC-SVG-20010904/DTD/svg10.dtd">
<svg version="1.0" xmlns="http://www.w3.org/2000/svg"
 width="400.000000pt" height="400.000000pt" viewBox="0 0 400.000000 400.000000"
 preserveAspectRatio="xMidYMid meet">
<metadata>
Created by potrace 1.16, written by Peter Selinger 2001-2019
</metadata>
<g transform="translate(0.000000,400.000000) scale(0.100000,-0.100000)"
fill="#000000" stroke="none">
<path d="M2000 3993 c-201 -19 -288 -36 -426 -81 -152 -50 -391 -188 -475
-274 -23 -24 -46 -42 -50 -41 -5 2 -8 -3 -6 -10 1 -6 -5 -11 -13 -9 -8 2 -12
1 -8 -3 4 -4 -21 -42 -55 -84 -153 -188 -242 -392 -283 -648 -22 -143 -15
-416 14 -548 66 -295 217 -546 453 -755 189 -167 341 -267 590 -390 183 -90
202 -105 167 -133 -18 -15 -32 -18 -78 -12 -163 19 -497 152 -715 284 -75 46
-217 154 -254 195 -47 51 -41 25 10 -39 134 -171 310 -319 488 -411 52 -27 69
-40 59 -46 -9 -7 -3 -8 18 -4 21 3 60 -6 120 -29 312 -117 687 -119 1006 -6
47 17 92 31 99 31 39 0 249 124 352 209 298 244 496 576 563 946 26 144 20
151 -35 40 -149 -302 -411 -438 -814 -422 -216 9 -373 50 -597 158 -289 139
-518 331 -676 565 -349 520 -204 1135 320 1353 137 57 233 75 401 75 170 -1
240 -13 393 -70 196 -73 316 -148 424 -263 226 -242 269 -516 110 -702 -194
-226 -614 -183 -877 92 -115 121 -168 257 -151 392 9 68 51 154 89 181 25 19
28 19 44 4 14 -15 15 -24 3 -77 -26 -124 1 -212 98 -313 124 -130 350 -184
497 -119 65 29 93 55 121 116 74 157 -21 323 -251 436 -215 105 -461 126 -612
53 -60 -29 -156 -127 -195 -200 -104 -193 -59 -401 132 -607 113 -122 284
-240 434 -298 238 -92 531 -93 698 -2 159 87 248 237 248 421 0 183 -71 344
-245 551 -43 51 -118 127 -166 169 -49 41 -85 80 -82 85 3 6 1 7 -6 3 -7 -5
-22 3 -37 17 -60 60 -316 162 -494 196 -57 11 -274 32 -300 29 -8 0 -31 -3
-50 -5z"/>
<path d="M0 545 l0 -65 45 0 45 0 2 -232 3 -233 63 -3 62 -3 0 236 0 235 50 0
50 0 0 65 0 65 -160 0 -160 0 0 -65z"/>
<path d="M580 312 l0 -302 60 0 60 0 0 120 c0 108 2 120 18 120 12 0 35 -36
77 -118 l60 -117 68 -3 c37 -2 67 -1 67 1 0 2 -29 60 -65 129 l-65 126 35 23
c94 65 85 242 -16 295 -20 10 -73 17 -164 21 l-135 6 0 -301z"/>
<path d="M1253 594 c-3 -8 -3 -115 -1 -237 5 -250 11 -276 73 -323 64 -48 196
-47 256 3 63 53 69 81 69 341 l0 232 -60 0 -60 0 0 -219 c0 -206 -1 -220 -21
-245 -27 -34 -86 -37 -115 -5 -17 19 -19 41 -22 245 l-3 224 -55 0 c-40 0 -56
-4 -61 -16z"/>
<path d="M1970 310 l0 -300 60 0 60 0 0 130 0 130 85 0 85 0 0 60 0 60 -85 0
-85 0 0 45 0 45 85 0 85 0 0 65 0 65 -145 0 -145 0 0 -300z"/>
<path d="M2550 310 l0 -300 60 0 60 0 0 130 0 130 90 0 90 0 0 60 0 60 -90 0
-90 0 0 45 0 44 88 3 87 3 0 60 0 60 -147 3 -148 3 0 -301z"/>
<path d="M3137 603 c-4 -3 -7 -138 -7 -300 l0 -293 140 0 140 0 0 60 0 60 -80
0 -80 0 0 240 0 240 -53 0 c-30 0 -57 -3 -60 -7z"/>
<path d="M3677 604 c-4 -4 -7 -139 -7 -301 l0 -293 165 0 165 0 0 60 0 60
-105 0 -105 0 0 70 0 70 105 0 105 0 0 60 0 60 -105 0 -105 0 0 45 0 44 103 3
102 3 0 60 0 60 -156 3 c-85 1 -158 -1 -162 -4z"/>
</g>
</svg>
